<svg width="375" height="812" viewBox="0 0 375 812" fill="none" xmlns="http://www.w3.org/2000/svg" role="img" aria-labelledby="title desc">
  <title id="title">Volume Today view mock</title>
  <desc id="desc">Stylized screenshot placeholder of the Volume workout tracker Today screen.</desc>
  <rect x="4" y="4" width="367" height="804" rx="46" fill="#05070F" stroke="url(#frame)" stroke-width="8" />
  <rect x="52" y="28" width="271" height="12" rx="6" fill="#1E2235" />
  <rect x="92" y="54" width="191" height="6" rx="3" fill="#1E2235" />
  <rect x="30" y="96" width="315" height="96" rx="20" fill="#0C1120" stroke="#1E2135" />
  <rect x="46" y="122" width="90" height="14" rx="7" fill="#5CE1E6" fill-opacity="0.3" />
  <rect x="46" y="146" width="184" height="28" rx="14" fill="#F4F7FF" fill-opacity="0.12" />
  <rect x="46" y="182" width="122" height="12" rx="6" fill="#7F8AAF" fill-opacity="0.4" />
  <rect x="30" y="220" width="315" height="88" rx="20" fill="#070B16" stroke="#1E2135" />
  <rect x="46" y="244" width="196" height="18" rx="9" fill="#F8FAFF" fill-opacity="0.2" />
  <rect x="46" y="270" width="150" height="12" rx="6" fill="#5CE1E6" fill-opacity="0.3" />
  <rect x="30" y="324" width="315" height="198" rx="24" fill="#0C0F1C" stroke="#1E2135" />
  <rect x="46" y="352" width="146" height="14" rx="7" fill="#7F8AAF" fill-opacity="0.5" />
  <rect x="46" y="374" width="244" height="18" rx="9" fill="#F4F7FF" fill-opacity="0.16" />
  <rect x="46" y="402" width="284" height="8" rx="4" fill="#202741" />
  <rect x="46" y="418" width="236" height="8" rx="4" fill="#202741" />
  <rect x="46" y="434" width="188" height="8" rx="4" fill="#202741" />
  <rect x="46" y="468" width="284" height="104" rx="20" fill="#0F1424" stroke="#1E2135" />
  <rect x="62" y="494" width="72" height="10" rx="5" fill="#5CE1E6" fill-opacity="0.5" />
  <rect x="62" y="512" width="232" height="32" rx="16" fill="#F8FAFF" fill-opacity="0.12" />
  <rect x="30" y="540" width="315" height="188" rx="24" fill="#090F1C" stroke="#1E2135" />
  <circle cx="98" cy="604" r="44" fill="#0F1424" stroke="#1E2135" />
  <circle cx="188" cy="604" r="44" fill="#0F1424" stroke="#1E2135" />
  <circle cx="278" cy="604" r="44" fill="#0F1424" stroke="#1E2135" />
  <rect x="62" y="668" width="251" height="28" rx="14" fill="#5CE1E6" fill-opacity="0.2" />
  <rect x="126" y="708" width="123" height="12" rx="6" fill="#7F8AAF" fill-opacity="0.4" />
  <defs>
    <linearGradient id="frame" x1="0" y1="0" x2="375" y2="812" gradientUnits="userSpaceOnUse">
      <stop stop-color="#6EE7F9" stop-opacity="0.7" />
      <stop offset="1" stop-color="#4E63F6" stop-opacity="0.8" />
    </linearGradient>
  </defs>
</svg>
